# xmcd
# 
# Track frame offsets:
#     150
#     39486
#     63738
#     91692
#     124925
#     145543
#     155037
# 
# Disc length: 2494
# 
# Revision: 0
# Processed by: cddbd v1.5.2PL0 Copyright (c) Steve Scherf et al.
# Submitted via: BonkEnc v1.0.8
# 
DISCID=5a09bc07
DTITLE=The Wounded Kings - Embrace of the Narrow House
DYEAR=2008
DGENRE=Doom Metal
TTITLE0=Embrace of the Narrow House
TTITLE1=The Hours
TTITLE2=Melanthos
TTITLE3=The Eighth House
TTITLE4=Master of Witches
TTITLE5=Shroud of Divine Will
TTITLE6=The Private Labyrinth
EXTD=
EXTT0=
EXTT1=
EXTT2=
EXTT3=
EXTT4=
EXTT5=
EXTT6=
PLAYORDER=
